<?xml version="1.0" standalone="no"?>
<!DOCTYPE svg PUBLIC "-//W3C//DTD SVG 20010904//EN"
 "http://www.w3.org/TR/2001/REC-SVG-20010904/DTD/svg10.dtd">
<svg version="1.0" xmlns="http://www.w3.org/2000/svg"
 width="96.000000pt" height="96.000000pt" viewBox="0 0 96.000000 96.000000"
 preserveAspectRatio="xMidYMid meet">

<g transform="translate(0.000000,96.000000) scale(0.100000,-0.100000)"
fill="#000000" stroke="none">
<path d="M620 951 c0 -6 -19 -15 -42 -21 -53 -14 -142 -71 -164 -105 -9 -14
-26 -25 -38 -25 -39 0 -49 -15 -43 -59 4 -34 1 -47 -19 -70 -13 -16 -24 -39
-23 -52 0 -21 2 -20 12 7 20 52 53 87 77 79 25 -8 25 -12 0 -50 -13 -20 -20
-47 -20 -82 0 -51 -1 -53 -27 -54 -28 -2 -28 -2 -3 -6 14 -3 28 -10 32 -17 9
-13 10 -2 8 72 -1 44 1 52 17 52 13 0 15 2 5 9 -10 6 -9 14 5 39 18 32 37 39
61 24 9 -6 10 -16 3 -34 -13 -36 -15 -119 -3 -148 8 -19 9 -8 5 48 l-6 73 44
-3 c42 -3 44 -5 44 -33 0 -25 -5 -32 -35 -42 l-35 -12 38 3 c22 1 47 12 62 26
20 19 35 23 88 23 36 -1 70 -4 76 -7 6 -4 11 -29 11 -56 0 -27 5 -52 10 -55
18 -11 11 -36 -17 -63 -25 -25 -35 -27 -95 -26 -79 2 -98 13 -99 63 l-1 36 -7
-35 c-11 -56 -22 -67 -37 -39 -18 32 -17 34 9 48 l22 11 -24 -6 c-15 -4 -27
-1 -32 7 -7 11 -9 10 -9 -3 0 -9 -8 -22 -17 -28 -16 -10 -15 -10 4 -5 17 5 25
0 37 -24 15 -28 15 -31 -6 -45 -21 -15 -24 -14 -53 14 -25 26 -28 32 -15 41
12 8 11 9 -6 4 -17 -4 -23 1 -32 27 l-11 33 5 -37 c5 -31 3 -37 -16 -43 -12
-4 -19 -9 -17 -12 3 -2 14 0 24 5 14 8 25 4 51 -19 37 -33 38 -37 15 -54 -15
-11 -23 -10 -48 8 -38 26 -75 63 -75 76 0 5 -4 12 -9 15 -4 3 -6 -6 -3 -20 3
-17 24 -38 62 -64 l58 -39 43 34 c38 30 45 32 59 20 9 -8 34 -21 56 -29 34
-12 39 -17 39 -45 0 -29 2 -32 30 -29 23 2 31 9 38 34 7 23 20 36 49 49 21 9
37 19 35 21 -2 2 -17 -2 -33 -11 -37 -19 -44 -19 -44 3 1 9 15 26 33 37 18 11
41 39 52 62 10 23 25 45 32 47 18 7 17 -42 -2 -78 -9 -16 -14 -31 -11 -33 4
-5 36 61 36 75 0 6 14 12 32 14 29 3 34 9 60 73 l29 70 -17 68 c-9 37 -20 69
-24 72 -6 4 8 -62 25 -115 4 -13 -6 -21 -39 -34 -24 -9 -50 -24 -56 -32 -17
-19 -6 -18 32 6 51 31 59 26 40 -22 -9 -24 -17 -45 -19 -48 -2 -2 -33 -5 -68
-5 l-65 -1 0 35 c0 76 -5 81 -75 81 -58 0 -63 2 -58 20 5 17 14 20 64 20 65 0
72 7 87 76 4 21 14 40 21 42 11 4 13 -4 7 -39 -12 -76 -27 -89 -101 -89 -37 0
-65 -4 -65 -10 0 -15 123 -12 143 3 24 17 49 114 36 139 -9 16 -23 18 -126 18
l-117 0 27 28 c22 22 27 38 27 76 l0 47 38 -7 c55 -9 113 -37 158 -75 l39 -33
-34 36 c-18 20 -54 45 -80 56 -58 25 -131 38 -131 23z m-5 -64 c-8 -38 -49
-84 -79 -90 -11 -2 37 -5 108 -6 l128 -1 -7 -37 c-10 -60 -24 -67 -112 -65
-92 3 -294 30 -306 42 -5 4 -7 18 -5 31 3 22 9 24 78 30 55 4 63 6 30 8 l-45
2 48 44 c45 41 142 89 160 78 5 -3 5 -19 2 -36z m-67 -212 c2 -2 2 -11 -1 -20
-7 -16 -77 -22 -77 -6 0 31 14 43 43 37 17 -3 33 -8 35 -11z m32 -35 c0 -11 0
-23 1 -27 0 -4 -4 -9 -10 -11 -6 -2 -11 10 -11 27 0 17 5 31 10 31 6 0 10 -9
10 -20z m30 0 c0 -5 -4 -10 -10 -10 -5 0 -10 5 -10 10 0 6 5 10 10 10 6 0 10
-4 10 -10z m-35 -257 c21 -10 35 -24 35 -35 0 -22 -10 -22 -55 -4 -33 14 -44
34 -28 49 9 9 7 9 48 -10z m105 -38 c0 -31 -3 -35 -25 -35 -22 0 -25 4 -25 35
0 31 3 35 25 35 22 0 25 -4 25 -35z m-10 -70 c0 -8 -9 -15 -20 -15 -11 0 -20
7 -20 15 0 8 9 15 20 15 11 0 20 -7 20 -15z"/>
<path d="M383 763 c9 -2 23 -2 30 0 6 3 -1 5 -18 5 -16 0 -22 -2 -12 -5z"/>
<path d="M370 740 c0 -5 15 -10 33 -9 27 0 29 2 12 9 -28 12 -45 12 -45 0z"/>
<path d="M116 882 c-16 -36 -16 -37 2 -14 l18 24 17 -24 c17 -22 17 -21 1 12
-9 19 -17 36 -18 37 -2 2 -10 -14 -20 -35z"/>
<path d="M695 860 c-4 -6 15 -10 50 -10 35 0 54 4 50 10 -3 6 -26 10 -50 10
-24 0 -47 -4 -50 -10z"/>
<path d="M61 841 c-11 -7 -7 -13 18 -25 17 -9 31 -20 31 -24 0 -5 6 -17 14
-27 13 -18 14 -17 29 11 9 17 28 36 43 43 22 10 25 14 13 22 -7 5 -18 9 -24 9
-5 0 -3 -4 4 -9 12 -8 10 -12 -11 -22 -15 -6 -29 -20 -31 -31 -6 -21 -27 -16
-27 6 0 7 -12 18 -27 25 -22 10 -24 14 -12 22 7 5 10 9 4 9 -5 0 -16 -4 -24
-9z"/>
<path d="M695 830 c3 -5 26 -10 50 -10 24 0 47 5 50 10 4 6 -15 10 -50 10 -35
0 -54 -4 -50 -10z"/>
<path d="M875 810 c3 -5 8 -10 11 -10 2 0 4 5 4 10 0 6 -5 10 -11 10 -5 0 -7
-4 -4 -10z"/>
<path d="M328 633 c7 -3 16 -2 19 1 4 3 -2 6 -13 5 -11 0 -14 -3 -6 -6z"/>
<path d="M150 581 l-25 -28 27 -27 c25 -24 27 -25 33 -7 3 10 16 22 28 25 l22
7 -21 11 c-12 5 -26 18 -30 28 -8 17 -11 16 -34 -9z m40 -42 c-13 -14 -17 -14
-32 -2 -15 13 -15 16 -1 33 14 16 17 16 32 1 14 -14 14 -18 1 -32z"/>
<path d="M282 565 c0 -16 2 -22 5 -12 2 9 2 23 0 30 -3 6 -5 -1 -5 -18z"/>
<path d="M10 556 c0 -8 6 -16 13 -19 6 -3 20 -19 30 -36 l18 -31 -25 0 c-20 0
-25 6 -29 33 l-4 32 -1 -37 c-2 -26 7 -52 30 -87 17 -28 33 -49 36 -46 3 3 0
11 -6 17 -19 19 -14 28 12 28 34 0 56 -35 56 -90 l0 -45 -20 30 c-11 17 -20
27 -20 22 0 -16 135 -221 167 -253 64 -64 81 -69 263 -70 l165 -1 -165 6
c-182 7 -200 12 -266 83 -50 53 -64 80 -64 120 0 45 5 47 32 13 30 -38 71 -55
130 -53 l53 1 -60 6 c-34 3 -73 14 -87 23 -14 9 -76 96 -138 192 -62 97 -114
176 -116 176 -2 0 -4 -6 -4 -14z m68 -108 c19 -19 14 -30 -10 -26 -13 2 -24
11 -26 21 -4 20 18 23 36 5z m112 -207 c0 -33 -1 -34 -15 -15 -8 10 -14 35
-14 54 0 33 1 34 14 16 8 -11 15 -36 15 -55z"/>
<path d="M270 510 c0 -5 5 -10 10 -10 6 0 10 5 10 10 0 6 -4 10 -10 10 -5 0
-10 -4 -10 -10z"/>
<path d="M281 474 c0 -11 3 -14 6 -6 3 7 2 16 -1 19 -3 4 -6 -2 -5 -13z"/>
<path d="M832 285 l-20 -21 21 -20 c22 -19 22 -19 42 1 l20 20 -21 21 -21 21
-21 -22z m31 -32 c-4 -10 -9 -11 -19 -2 -11 9 -12 15 -3 26 14 17 31 -1 22
-24z"/>
<path d="M75 187 c-5 -17 -20 -34 -39 -44 l-31 -17 26 -9 c15 -6 34 -24 42
-41 l15 -31 11 28 c6 15 22 32 36 39 14 6 25 15 25 20 0 17 -18 6 -60 -36 -18
-18 -20 -18 -26 -2 -4 10 -15 21 -24 24 -16 6 -14 10 11 34 28 25 30 25 40 7
5 -10 15 -19 22 -19 8 0 9 2 1 8 -6 4 -18 21 -27 37 l-15 30 -7 -28z"/>
<path d="M518 173 c39 -2 105 -2 145 0 39 1 7 3 -73 3 -80 0 -112 -2 -72 -3z"/>
<path d="M757 160 c28 -11 39 -50 23 -82 -11 -22 -10 -22 4 -4 9 11 16 27 16
36 0 24 -29 60 -48 59 -13 0 -11 -3 5 -9z"/>
<path d="M508 123 c18 -2 45 -2 60 0 15 2 0 4 -33 4 -33 0 -45 -2 -27 -4z"/>
<path d="M493 93 c26 -2 67 -2 90 0 23 2 2 3 -48 3 -49 0 -68 -1 -42 -3z"/>
<path d="M513 53 c15 -2 39 -2 55 0 15 2 2 4 -28 4 -30 0 -43 -2 -27 -4z"/>
<path d="M720 24 c-16 -8 -19 -14 -9 -14 8 0 24 7 35 15 24 18 7 18 -26 -1z"/>
</g>
</svg>
